<svg width="58" height="51" viewBox="0 0 58 51" fill="none" xmlns="http://www.w3.org/2000/svg">
<path d="M0 17.7498C0.18 16.6998 0.319998 15.6297 0.559998 14.5897C2.23 7.38968 8.41001 1.61999 15.7 0.409991C24.52 -1.05001 32.89 3.47974 36.44 11.6497C36.59 11.9997 36.76 12.1297 37.14 12.1097C39.83 12.0297 42.52 12.15 45.06 13.12C52.6 15.97 56.96 21.3798 57.88 29.4198C58.38 33.8198 57.25 37.8797 54.82 41.5697C54.62 41.8797 54.59 42.1 54.76 42.43C55.76 44.39 56.74 46.3697 57.73 48.3397C57.98 48.8397 58.15 49.3296 57.7 49.7996C57.35 50.1796 56.91 50.1799 56.2 49.8299C54.24 48.8499 52.28 47.88 50.34 46.89C49.99 46.71 49.75 46.7398 49.42 46.9598C39.51 53.5098 26.1 49.4401 21.51 38.4701C21.35 38.1001 21.19 37.9696 20.77 38.0096C16.3 38.4396 12.2 37.3797 8.46997 34.8997C8.18997 34.7097 7.97001 34.7397 7.70001 34.8797C5.73001 35.8697 3.76003 36.8597 1.78003 37.8397C0.890029 38.2797 0.6 38.2198 0 37.4598C0 37.2298 0 37.0096 0 36.7796C0.03 36.7596 0.0700171 36.7398 0.0800171 36.7098C1.15002 34.5698 2.23002 32.4399 3.27002 30.2899C3.35002 30.1199 3.27997 29.7799 3.15997 29.5999C1.91997 27.6999 1.01001 25.6698 0.51001 23.4598C0.29001 22.5098 0.17 21.5399 0 20.5799C0 19.6399 0 18.6898 0 17.7498ZM3.27002 34.8197C3.53002 34.7097 3.69002 34.6599 3.83002 34.5799C5.03002 33.9799 6.23997 33.4099 7.40997 32.7699C8.03997 32.4299 8.54 32.4897 9.12 32.8997C12.61 35.3897 16.49 36.4298 20.76 35.9998C30.44 35.0198 37.4 25.8997 35.76 16.3197C34.19 7.09966 25.61 0.909894 16.37 2.30989C3.99 4.19989 -2.14997 18.6099 5.09003 28.8299C5.60003 29.5499 5.64998 30.13 5.22998 30.89C4.53998 32.13 3.95001 33.4299 3.26001 34.8099L3.27002 34.8197ZM23.33 37.6097C25.52 43.5197 31.93 47.9599 38.4 48.0999C42.26 48.1899 45.78 47.1497 48.91 44.8797C49.48 44.4697 49.97 44.4399 50.57 44.7699C51.78 45.4199 53.03 46.01 54.26 46.62C54.38 46.68 54.5 46.7099 54.72 46.7899C54 45.3599 53.36 44.01 52.66 42.7C52.33 42.07 52.37 41.5598 52.79 40.9798C54.63 38.4498 55.74 35.6198 55.92 32.4998C56.31 26.0598 53.87 20.9 48.63 17.14C45.28 14.74 41.47 13.8897 37.34 14.1497C38.63 19.3297 38.04 24.2499 35.3 28.8299C32.55 33.3999 28.51 36.28 23.34 37.62L23.33 37.6097Z" fill="white"/>
<path d="M19.0002 16.1201C20.6602 16.1201 21.9802 17.4401 21.9902 19.1001C21.9902 20.7801 20.6402 22.1299 18.9702 22.1099C17.3302 22.0899 15.9802 20.7301 16.0002 19.1001C16.0102 17.4601 17.3602 16.1299 19.0102 16.1299L19.0002 16.1201ZM19.9902 19.1299C19.9902 18.5799 19.5502 18.1099 19.0002 18.1099C18.4802 18.1099 18.0302 18.5498 18.0102 19.0698C17.9902 19.6198 18.4302 20.0999 18.9702 20.1099C19.5102 20.1299 19.9802 19.6701 19.9902 19.1201V19.1299Z" fill="white"/>
<path d="M26.9817 16.1202C28.6317 16.1102 29.9817 17.4299 30.0017 19.0699C30.0217 20.7199 28.6517 22.1102 26.9917 22.1002C25.3417 22.1002 24.0117 20.7599 24.0117 19.1099C24.0117 17.4499 25.3217 16.1302 26.9817 16.1202ZM27.0117 18.1099C26.4717 18.1099 26.0117 18.5599 26.0117 19.1099C26.0117 19.6499 26.4317 20.0799 26.9517 20.1099C27.4917 20.1299 27.9617 19.6902 27.9817 19.1402C27.9917 18.5902 27.5517 18.1199 27.0117 18.1099Z" fill="white"/>
<path d="M11.0018 16.1201C12.6618 16.1201 13.9918 17.4501 13.9918 19.1001C13.9918 20.7601 12.6218 22.1201 10.9618 22.1001C9.30179 22.0801 8.00178 20.7498 8.01178 19.0898C8.01178 17.4298 9.34177 16.1201 11.0018 16.1201ZM12.0018 19.1299C12.0118 18.5899 11.5518 18.1099 11.0118 18.1099C10.5018 18.1099 10.0318 18.5401 10.0018 19.0601C9.97177 19.5901 10.4317 20.0899 10.9717 20.1099C11.5117 20.1299 11.9918 19.6699 12.0018 19.1299Z" fill="white"/>
<path d="M36.008 31.0694C36.018 29.4194 37.368 28.0994 39.018 28.1094C40.658 28.1194 42.008 29.4794 41.998 31.1094C41.998 32.7494 40.638 34.0894 38.998 34.0894C37.318 34.0894 35.988 32.7496 36.008 31.0596V31.0694ZM39.978 31.1094C39.978 30.5594 39.518 30.0994 38.968 30.1094C38.418 30.1194 37.978 30.5897 37.998 31.1397C38.018 31.6697 38.458 32.0994 38.978 32.1094C39.518 32.1094 39.978 31.6497 39.978 31.0997V31.1094Z" fill="white"/>
<path d="M46.99 34.1003C45.34 34.1003 44 32.7703 44 31.1203C44 29.4603 45.37 28.1003 47.04 28.1203C48.7 28.1403 50 29.4701 49.99 31.1301C49.98 32.7901 48.66 34.1003 47 34.1003H46.99ZM46.97 32.1101C47.5 32.1201 47.99 31.6501 47.99 31.1101C47.99 30.5901 47.56 30.1301 47.04 30.1101C46.5 30.0801 46.02 30.5303 46 31.0803C45.98 31.6203 46.44 32.1001 46.98 32.1101H46.97Z" fill="white"/>
</svg>
