<svg width="41" height="41" viewBox="0 0 41 41" fill="none" xmlns="http://www.w3.org/2000/svg">
<path d="M40.2594 20.6406C40.2594 9.62062 31.3294 0.691406 20.3094 0.691406C9.28945 0.691406 0.359375 9.62062 0.359375 20.6406C0.359375 30.6006 7.64933 38.8506 17.1893 40.3506V26.4111H12.1194V20.6406H17.1893V16.2412C17.1893 11.2412 20.1694 8.48145 24.7194 8.48145C26.8994 8.48145 29.1893 8.87109 29.1893 8.87109V13.7812H26.6694C24.1894 13.7812 23.4194 15.3214 23.4194 16.9014V20.6406H28.9493L28.0693 26.4111H23.4194V40.3506C32.9594 38.8506 40.2494 30.6006 40.2494 20.6406H40.2594Z" fill="#028687"/>
<path d="M28.071 26.4102L28.951 20.6396H23.4211V16.9004C23.4211 15.3204 24.1911 13.7803 26.6711 13.7803H29.191V8.87012C29.191 8.87012 26.9111 8.48047 24.7211 8.48047C20.1611 8.48047 17.191 11.2402 17.191 16.2402V20.6396H12.1211V26.4102H17.191V40.3496C18.211 40.5096 19.2512 40.5898 20.3112 40.5898C21.3712 40.5898 22.4112 40.5096 23.4312 40.3496V26.4102H28.0811H28.071Z" fill="white"/>
</svg>
