<svg width="74" height="74" viewBox="0 0 74 74" fill="none" xmlns="http://www.w3.org/2000/svg">
<path d="M73.6294 36.8701C73.6294 16.6301 57.2295 0.230469 36.9895 0.230469C16.7495 0.230469 0.349609 16.6301 0.349609 36.8701C0.349609 55.1601 13.7495 70.3196 31.2595 73.0596V47.46H21.9595V36.8701H31.2595V28.7998C31.2595 19.6198 36.7296 14.5498 45.0996 14.5498C49.1096 14.5498 53.2996 15.2695 53.2996 15.2695V24.29H48.6794C44.1294 24.29 42.7095 27.1098 42.7095 30.0098V36.8799H52.8696L51.2495 47.4697H42.7095V73.0703C60.2295 70.3203 73.6196 55.1599 73.6196 36.8799L73.6294 36.8701Z" fill="white"/>
<path d="M51.249 47.46L52.8691 36.8701H42.709V30C42.709 27.1 44.129 24.2803 48.679 24.2803H53.2991V15.2598C53.2991 15.2598 49.1091 14.54 45.0991 14.54C36.7291 14.54 31.259 19.61 31.259 28.79V36.8604H21.959V47.4502H31.259V73.0498C33.129 73.3398 35.039 73.5 36.979 73.5C38.919 73.5 40.839 73.3498 42.699 73.0498V47.4502H51.239L51.249 47.46Z" fill="#293540"/>
</svg>
