<svg width="74" height="74" viewBox="0 0 74 74" fill="none" xmlns="http://www.w3.org/2000/svg">
<path d="M37.1497 73.5098C57.3854 73.5098 73.7898 57.1058 73.7898 36.8701C73.7898 16.6344 57.3854 0.230469 37.1497 0.230469C16.9139 0.230469 0.509766 16.6344 0.509766 36.8701C0.509766 57.1058 16.9139 73.5098 37.1497 73.5098Z" fill="white"/>
<path d="M48.52 23C47.13 23 46 24.1295 46 25.5195C46 26.9095 47.13 28.04 48.52 28.04C49.91 28.04 51.04 26.9095 51.04 25.5195C51.04 24.1295 49.91 23 48.52 23Z" fill="#293540"/>
<path d="M37.3301 26.2305C31.5001 26.2305 26.75 30.9796 26.75 36.8096C26.75 42.6396 31.5001 47.3896 37.3301 47.3896C43.1601 47.3896 47.9099 42.6396 47.9099 36.8096C47.9099 30.9796 43.1601 26.2305 37.3301 26.2305ZM37.3301 43.5898C33.5901 43.5898 30.55 40.5496 30.55 36.8096C30.55 33.0696 33.5901 30.0303 37.3301 30.0303C41.0701 30.0303 44.1101 33.0696 44.1101 36.8096C44.1101 40.5496 41.0701 43.5898 37.3301 43.5898Z" fill="#293540"/>
<path d="M45.7297 58.29H28.5798C21.4598 58.29 15.6797 52.4996 15.6797 45.3896V28.2402C15.6797 21.1202 21.4698 15.3398 28.5798 15.3398H45.7297C52.8497 15.3398 58.6296 21.1302 58.6296 28.2402V45.3896C58.6296 52.5096 52.8397 58.29 45.7297 58.29ZM28.5698 19.3799C23.6798 19.3799 19.7097 23.3602 19.7097 28.2402V45.3896C19.7097 50.2796 23.6898 54.25 28.5698 54.25H45.7197C50.6097 54.25 54.5798 50.2696 54.5798 45.3896V28.2402C54.5798 23.3502 50.5997 19.3799 45.7197 19.3799H28.5698Z" fill="#293540"/>
</svg>
