<svg width="47" height="47" viewBox="0 0 47 47" fill="none" xmlns="http://www.w3.org/2000/svg">
<path d="M11.7814 18.3502H13.9914C13.9914 18.1602 13.9914 17.9899 13.9914 17.8199C13.9914 16.1499 14.0014 14.4699 13.9914 12.7999C13.9914 12.3199 14.1414 12.0101 14.5414 11.7501C17.2314 9.99008 19.9114 8.20026 22.6014 6.43026C22.8614 6.26026 22.9414 6.0701 22.9314 5.7701C22.9214 4.2401 22.9314 2.71 22.9214 1.17C22.9214 0.730003 22.9514 0.330276 23.4714 0.200276C23.8414 0.110276 24.1114 0.349925 24.2914 0.839925C24.9214 0.969925 25.5214 1.09006 26.1214 1.23006C26.6014 1.35006 27.0714 1.41004 27.5514 1.21004C27.9714 1.03004 28.4014 1.32012 28.4114 1.79012C28.4414 2.71012 28.4514 3.62012 28.4014 4.54012C28.3914 4.77012 28.1214 5.07002 27.9014 5.19002C27.2414 5.55002 26.5314 5.43008 25.8214 5.25008C25.3214 5.13008 24.8214 5.03024 24.2514 4.91024C24.2514 5.35024 24.2214 5.68008 24.2614 6.00008C24.2814 6.15008 24.4414 6.31024 24.5814 6.41024C27.2514 8.19024 29.9114 9.96004 32.5914 11.71C33.0314 12 33.1914 12.3199 33.1914 12.8399C33.1614 14.4999 33.1914 16.1601 33.1914 17.8101C33.1914 17.9801 33.1914 18.1499 33.1914 18.3399H35.3814C35.3814 18.1699 35.4014 17.9999 35.4114 17.8399C35.4114 17.0499 35.4114 16.2603 35.4114 15.4703C35.4114 14.9903 35.6314 14.7601 36.1014 14.7501C38.3114 14.7401 40.5214 14.7401 42.7314 14.7501C43.2314 14.7501 43.4614 15.0101 43.4714 15.5401C43.4814 16.3101 43.4714 17.0899 43.4714 17.8599C43.4714 18.0099 43.4814 18.1702 43.4914 18.3702C44.3714 18.3702 45.2214 18.3702 46.0714 18.3702C46.7914 18.3702 46.9914 18.5699 46.9914 19.2999C46.9914 28.2199 46.9914 37.1499 46.9914 46.0699C46.9914 46.7899 46.7814 47.0001 46.0714 47.0001C31.0814 47.0001 16.1014 47.0001 1.11139 47.0001C0.391389 47.0001 0.191406 46.7899 0.191406 46.0699C0.191406 37.1499 0.191406 28.2199 0.191406 19.2999C0.191406 18.5699 0.381389 18.3702 1.11139 18.3702C1.96139 18.3702 2.81143 18.3702 3.71143 18.3702C3.71143 17.4702 3.71143 16.6299 3.71143 15.7799C3.71143 14.9299 3.89138 14.7501 4.73138 14.7501C6.74138 14.7501 8.7414 14.7501 10.7514 14.7501C11.6514 14.7501 11.7814 14.8901 11.7814 15.8101C11.7814 16.6401 11.7814 17.4802 11.7814 18.3502ZM31.8414 45.67V13.19H15.3614V45.65H17.3114C17.3114 45.44 17.3114 45.2501 17.3114 45.0601C17.3114 41.8501 17.3114 38.65 17.3114 35.44C17.3114 34.68 17.5014 34.4903 18.2614 34.4903C21.7814 34.4903 25.3014 34.4903 28.8314 34.4903C29.7314 34.4903 29.8814 34.6401 29.8814 35.5201C29.8814 38.7101 29.8814 41.8999 29.8814 45.0899V45.65H31.8414V45.67ZM1.55139 19.7203V45.6402H13.9614V19.7203H1.55139ZM33.2314 19.7203V45.6402H45.6414V19.7203H33.2314ZM22.9014 45.67V35.8599H18.6814V45.67H22.9014ZM28.5214 45.6602V35.8599H24.2914V45.6602H28.5214ZM17.0214 11.7203C17.0214 11.7203 17.0514 11.7699 17.0714 11.7999H30.2314C30.1214 11.6999 30.0714 11.6399 30.0114 11.6099C27.9614 10.2499 25.9114 8.89987 23.8614 7.52987C23.6214 7.36987 23.4714 7.45016 23.2714 7.58016C22.0614 8.39016 20.8514 9.18006 19.6414 9.98006C18.7614 10.5601 17.8914 11.1401 17.0114 11.7301L17.0214 11.7203ZM10.4214 18.3502V16.1202H5.07141V18.3502H10.4214ZM42.1314 16.1099H36.7814V18.3399H42.1314V16.1099ZM27.0914 2.7701C26.1214 2.5801 25.2214 2.4003 24.2914 2.2203V3.58992C25.2414 3.77992 26.1514 3.96022 27.0914 4.14022V2.7701Z" fill="white"/>
<path d="M23.5903 21.5C25.3703 21.5 27.1603 21.5 28.9403 21.5C29.7103 21.5 29.8803 21.6702 29.8803 22.4502C29.8803 23.3202 29.8803 24.1898 29.8803 25.0498C29.8803 25.6598 29.6603 25.8701 29.0503 25.8701C25.4203 25.8701 21.7903 25.8701 18.1603 25.8701C17.5403 25.8701 17.3203 25.6601 17.3203 25.0601C17.3203 24.1401 17.3203 23.2301 17.3203 22.3101C17.3203 21.6901 17.5303 21.4902 18.1503 21.4902C19.9703 21.4902 21.7803 21.4902 23.6003 21.4902L23.5903 21.5ZM28.5303 22.8599H18.6703V24.54H28.5303V22.8599Z" fill="white"/>
<path d="M23.5503 19.54C21.7703 19.54 19.9803 19.54 18.2003 19.54C17.5203 19.54 17.3203 19.3502 17.3203 18.6802C17.3203 17.7802 17.3203 16.88 17.3203 15.98C17.3203 15.37 17.5403 15.1602 18.1603 15.1602C21.7903 15.1602 25.4203 15.1602 29.0503 15.1602C29.6703 15.1602 29.8803 15.37 29.8903 15.98C29.8903 16.9 29.8903 17.81 29.8903 18.73C29.8903 19.34 29.6703 19.5398 29.0503 19.5498C27.2203 19.5498 25.3903 19.5498 23.5603 19.5498L23.5503 19.54ZM28.5303 16.5098H18.6703V18.1899H28.5303V16.5098Z" fill="white"/>
<path d="M23.6325 27.8501C25.4125 27.8501 27.2025 27.8501 28.9825 27.8501C29.7025 27.8501 29.8725 28.03 29.8825 28.75C29.8825 29.63 29.8825 30.5199 29.8825 31.3999C29.8825 32.0099 29.6625 32.23 29.0525 32.23C25.4225 32.23 21.7925 32.23 18.1625 32.23C17.5325 32.23 17.3225 32.0201 17.3125 31.3701C17.3125 30.4701 17.3125 29.5699 17.3125 28.6699C17.3125 28.0499 17.5225 27.8498 18.1425 27.8398C19.9725 27.8398 21.8025 27.8398 23.6325 27.8398V27.8501ZM28.5325 29.2002H18.6725V30.8799H28.5325V29.2002Z" fill="white"/>
<path d="M7.78998 27.8501C8.74998 27.8501 9.70999 27.8501 10.68 27.8501C11.3 27.8501 11.51 28.0599 11.52 28.6699C11.53 29.5799 11.53 30.5002 11.52 31.4102C11.52 32.0102 11.29 32.23 10.68 32.23C8.73999 32.23 6.79999 32.23 4.85999 32.23C4.22999 32.23 4 31.9999 4 31.3799C4 30.4799 4 29.5802 4 28.6802C4 28.0702 4.22001 27.8498 4.82001 27.8398C5.81001 27.8398 6.80999 27.8398 7.79999 27.8398L7.78998 27.8501ZM5.33002 30.8901H10.15V29.21H5.33002V30.8901Z" fill="white"/>
<path d="M7.76221 25.8901C6.77221 25.8901 5.77223 25.8901 4.78223 25.8901C4.24223 25.8901 3.99219 25.6501 3.99219 25.1201C3.99219 24.1701 3.99219 23.2298 3.99219 22.2798C3.99219 21.7498 4.24223 21.5098 4.78223 21.5098C6.77223 21.5098 8.76219 21.5098 10.7422 21.5098C11.2722 21.5098 11.5022 21.7298 11.5122 22.2598C11.5322 23.2198 11.5322 24.1799 11.5122 25.1499C11.5122 25.6699 11.2622 25.8899 10.7422 25.8999C9.75219 25.8999 8.75221 25.8999 7.76221 25.8999V25.8901ZM10.1622 22.8599H5.34222V24.54H10.1622V22.8599Z" fill="white"/>
<path d="M7.7522 38.8901C6.7722 38.8901 5.7922 38.8901 4.8222 38.8901C4.2222 38.8901 3.99219 38.6601 3.99219 38.0601C3.99219 37.1501 3.99219 36.2298 3.99219 35.3198C3.99219 34.7498 4.23219 34.5098 4.80219 34.5098C6.77219 34.5098 8.74217 34.5098 10.7222 34.5098C11.2922 34.5098 11.5222 34.7398 11.5322 35.3198C11.5422 36.2298 11.5322 37.1501 11.5322 38.0601C11.5322 38.6801 11.3122 38.8901 10.7022 38.8901C9.72221 38.8901 8.74222 38.8901 7.77222 38.8901H7.7522ZM5.34222 35.8398V37.54H10.1522V35.8398H5.34222Z" fill="white"/>
<path d="M39.4333 32.2295C38.4533 32.2295 37.4733 32.2295 36.5033 32.2295C35.9233 32.2295 35.6933 32.0097 35.6833 31.4297C35.6733 30.4997 35.6733 29.5696 35.6833 28.6396C35.6833 28.0596 35.9133 27.8496 36.5033 27.8496C38.4733 27.8496 40.4433 27.8496 42.4233 27.8496C42.9933 27.8496 43.2133 28.0897 43.2233 28.6597C43.2233 29.5697 43.2233 30.4894 43.2233 31.3994C43.2233 31.9894 42.9833 32.2197 42.3833 32.2197C41.4033 32.2197 40.4233 32.2197 39.4533 32.2197L39.4333 32.2295ZM41.8633 29.1997H37.0433V30.8794H41.8633V29.1997Z" fill="white"/>
<path d="M39.4333 25.8901C38.4533 25.8901 37.4733 25.8901 36.5033 25.8901C35.9233 25.8901 35.6933 25.6698 35.6833 25.0898C35.6733 24.1598 35.6733 23.2298 35.6833 22.2998C35.6833 21.7198 35.9133 21.5098 36.5033 21.5098C38.4633 21.5098 40.4133 21.5098 42.3733 21.5098C42.9833 21.5098 43.2133 21.7401 43.2133 22.3301C43.2133 23.2401 43.2133 24.1598 43.2133 25.0698C43.2133 25.6598 42.9733 25.8901 42.3733 25.8901C41.3933 25.8901 40.4133 25.8901 39.4433 25.8901H39.4333ZM41.8633 22.8501H37.0433V24.5298H41.8633V22.8501Z" fill="white"/>
<path d="M39.4319 38.8901C38.4719 38.8901 37.5119 38.8901 36.5419 38.8901C35.8719 38.8901 35.6719 38.6898 35.6719 38.0098C35.6719 37.1098 35.6719 36.2101 35.6719 35.3101C35.6719 34.7301 35.9119 34.51 36.4819 34.5C38.4519 34.5 40.4219 34.5 42.4019 34.5C42.9619 34.5 43.2019 34.7401 43.2019 35.3101C43.2019 36.2401 43.2019 37.1701 43.2019 38.1001C43.2019 38.6401 42.9619 38.8699 42.4119 38.8799C41.4219 38.8799 40.4219 38.8799 39.4319 38.8799V38.8901ZM37.0319 35.8398V37.54H41.8419V35.8398H37.0319Z" fill="white"/>
</svg>
