<svg width="41" height="41" viewBox="0 0 41 41" fill="none" xmlns="http://www.w3.org/2000/svg">
<path d="M20.9305 40.5908C31.9486 40.5908 40.8805 31.6587 40.8805 20.6406C40.8805 9.62254 31.9486 0.691406 20.9305 0.691406C9.91246 0.691406 0.980469 9.62254 0.980469 20.6406C0.980469 31.6587 9.91246 40.5908 20.9305 40.5908Z" fill="#028687"/>
<path d="M27.1317 13.0898C26.3717 13.0898 25.7617 13.7 25.7617 14.46C25.7617 15.22 26.3717 15.8301 27.1317 15.8301C27.8917 15.8301 28.5017 15.22 28.5017 14.46C28.5017 13.7 27.8917 13.0898 27.1317 13.0898Z" fill="white"/>
<path d="M21.0295 14.8496C17.8495 14.8496 15.2695 17.4304 15.2695 20.6104C15.2695 23.7904 17.8495 26.3701 21.0295 26.3701C24.2095 26.3701 26.7896 23.7904 26.7896 20.6104C26.7896 17.4304 24.2095 14.8496 21.0295 14.8496ZM21.0295 24.2998C18.9995 24.2998 17.3395 22.6404 17.3395 20.6104C17.3395 18.5804 18.9995 16.9199 21.0295 16.9199C23.0595 16.9199 24.7195 18.5804 24.7195 20.6104C24.7195 22.6404 23.0595 24.2998 21.0295 24.2998Z" fill="white"/>
<path d="M25.6005 32.3096H16.2605C12.3905 32.3096 9.23047 29.1603 9.23047 25.2803V15.9404C9.23047 12.0704 12.3805 8.91016 16.2605 8.91016H25.6005C29.4705 8.91016 32.6305 12.0604 32.6305 15.9404V25.2803C32.6305 29.1503 29.4805 32.3096 25.6005 32.3096ZM16.2605 11.1201C13.6005 11.1201 11.4305 13.2802 11.4305 15.9502V25.29C11.4305 27.95 13.5905 30.1201 16.2605 30.1201H25.6005C28.2605 30.1201 30.4305 27.96 30.4305 25.29V15.9502C30.4305 13.2902 28.2705 11.1201 25.6005 11.1201H16.2605Z" fill="white"/>
</svg>
