<svg width="74" height="74" viewBox="0 0 74 74" fill="none" xmlns="http://www.w3.org/2000/svg">
<path d="M37.0894 73.5098C57.3251 73.5098 73.7292 57.1058 73.7292 36.8701C73.7292 16.6344 57.3251 0.230469 37.0894 0.230469C16.8536 0.230469 0.449219 16.6344 0.449219 36.8701C0.449219 57.1058 16.8536 73.5098 37.0894 73.5098Z" fill="white"/>
<path d="M21.7202 30.04H28.8203V52.8398H21.7202V30.04ZM25.2703 18.71C27.5403 18.71 29.3801 20.5503 29.3801 22.8203C29.3801 25.0903 27.5403 26.9297 25.2703 26.9297C23.0003 26.9297 21.1602 25.0903 21.1602 22.8203C21.1602 20.5503 23.0003 18.71 25.2703 18.71Z" fill="#293540"/>
<path d="M33.2598 30.04H40.0598V33.1602H40.1497C41.0997 31.3702 43.4099 29.4805 46.8599 29.4805C54.0299 29.4805 55.3599 34.1998 55.3599 40.3398V52.8398H48.2798V41.7598C48.2798 39.1098 48.2299 35.71 44.5999 35.71C40.9699 35.71 40.3499 38.5896 40.3499 41.5596V52.8398H33.2698V30.04H33.2598Z" fill="#293540"/>
</svg>
