<svg width="41" height="41" viewBox="0 0 41 41" fill="none" xmlns="http://www.w3.org/2000/svg">
<path d="M20.3993 40.5908C31.4174 40.5908 40.3492 31.6587 40.3492 20.6406C40.3492 9.62254 31.4174 0.691406 20.3993 0.691406C9.38121 0.691406 0.449219 9.62254 0.449219 20.6406C0.449219 31.6587 9.38121 40.5908 20.3993 40.5908Z" fill="#028687"/>
<path d="M12.0405 16.9316H15.9005V29.3418H12.0405V16.9316ZM13.9705 10.7617C15.2105 10.7617 16.2104 11.762 16.2104 13.002C16.2104 14.242 15.2105 15.2422 13.9705 15.2422C12.7305 15.2422 11.7305 14.242 11.7305 13.002C11.7305 11.762 12.7305 10.7617 13.9705 10.7617Z" fill="white"/>
<path d="M18.3185 16.9307H22.0186V18.6309H22.0685C22.5885 17.6509 23.8385 16.6309 25.7185 16.6309C29.6285 16.6309 30.3485 19.201 30.3485 22.541V29.3506H26.4885V23.3213C26.4885 21.8813 26.4585 20.0312 24.4785 20.0312C22.4985 20.0312 22.1686 21.6007 22.1686 23.2207V29.3613H18.3086V16.9512L18.3185 16.9307Z" fill="white"/>
</svg>
