<svg width="56" height="56" viewBox="0 0 56 56" fill="none" xmlns="http://www.w3.org/2000/svg">
<path d="M56.0005 36.0397C55.8905 36.2797 55.8005 36.5295 55.6705 36.7595C55.1505 37.7195 54.3305 38.2395 53.2405 38.2995C52.7805 38.3295 52.3105 38.2995 51.8205 38.2995C51.2305 40.6095 50.6505 42.8896 50.0605 45.1696C49.3405 47.9696 48.6305 50.7695 47.9105 53.5695C47.5805 54.8495 47.0605 55.2497 45.7305 55.2497C34.1405 55.2497 22.5605 55.2497 10.9705 55.2497C9.67046 55.2497 9.1405 54.8498 8.8205 53.5998C7.5605 48.6898 6.31048 43.7896 5.05048 38.8796C5.01048 38.7096 4.96051 38.5298 4.90051 38.3098C4.48051 38.3098 4.05048 38.3098 3.62048 38.3098C1.96048 38.2798 0.740469 37.0598 0.730469 35.3898C0.730469 34.8498 0.730469 34.3097 0.730469 33.7697C0.730469 31.9697 1.87047 30.7899 3.67047 30.7399C3.79047 30.7399 3.92052 30.7299 4.09052 30.7199C4.10052 30.5099 4.13049 30.3196 4.13049 30.1296C4.13049 28.9196 4.14049 27.7195 4.13049 26.5095C4.13049 25.9995 4.25046 25.5799 4.60046 25.1799C5.30046 24.3899 5.96051 23.5497 6.65051 22.7497C6.82051 22.5497 6.86048 22.3998 6.74048 22.1398C6.09048 20.7498 6.28049 19.4497 7.25049 18.2697C7.59049 17.8497 7.93048 17.4297 8.30048 17.0397C9.54048 15.6897 11.6205 15.5296 13.0405 16.6696C14.4905 17.8296 14.8005 19.9099 13.7105 21.4099C13.2905 21.9899 12.8305 22.5498 12.3205 23.0598C11.4005 23.9898 10.2705 24.2799 9.00049 23.9699C8.66049 23.8899 8.46047 23.9197 8.23047 24.2097C7.70047 24.8897 7.11051 25.5297 6.58051 26.2097C6.42051 26.4197 6.30048 26.7197 6.30048 26.9797C6.27048 28.2197 6.29047 29.4499 6.29047 30.7199H14.9405C14.9905 29.8299 14.9805 28.9498 15.1005 28.0798C15.2705 26.8398 15.4405 25.5796 15.7905 24.3796C16.3405 22.4796 17.5805 21.0498 19.3205 20.1398C20.4105 19.5698 21.1705 18.6795 22.0405 17.8195C21.8205 17.5595 21.6005 17.2997 21.3905 17.0397C20.4005 15.8097 19.8405 14.4295 19.8805 12.8195C19.9205 11.2395 19.8405 9.64952 19.9305 8.06952C20.1605 3.94952 23.4505 0.639933 27.6405 0.239933C31.6705 -0.150067 35.5605 2.59976 36.5405 6.55976C36.7305 7.33976 36.7805 8.15966 36.8105 8.95966C36.8505 10.1997 36.7805 11.4399 36.8305 12.6799C36.9005 14.4799 36.2505 15.9798 35.1005 17.3098C34.9705 17.4598 34.8405 17.6098 34.6205 17.8498C35.3405 18.4998 35.9605 19.3099 36.7905 19.7399C39.4805 21.1499 41.0005 23.3197 41.4005 26.2897C41.5705 27.5697 41.6305 28.8699 41.7305 30.1599C41.7405 30.3399 41.7505 30.5099 41.7605 30.7199H50.4205C50.4205 29.8799 50.3405 29.0499 50.4405 28.2399C50.5805 27.0199 50.2305 26.0299 49.3105 25.2199C49.2605 25.1699 49.2105 25.1098 49.1705 25.0598C48.6605 24.2898 48.1305 23.7895 47.0205 24.0495C45.9105 24.2995 44.9205 23.7198 44.1705 22.8498C43.8005 22.4298 43.4405 22.0098 43.1005 21.5598C41.9205 20.0098 42.1705 17.8996 43.6605 16.6896C45.1005 15.5196 47.2105 15.7096 48.4705 17.1296C48.8405 17.5496 49.2005 17.9699 49.5505 18.4099C50.4305 19.5499 50.5905 20.7996 49.9905 22.1096C49.8605 22.3996 49.8705 22.5698 50.0805 22.8098C50.7505 23.5798 51.3805 24.3899 52.0705 25.1599C52.4405 25.5799 52.5905 26.0298 52.5805 26.5798C52.5605 27.7698 52.5805 28.9498 52.5805 30.1398C52.5805 30.3298 52.6005 30.5297 52.6105 30.7297C53.0005 30.7597 53.3505 30.7298 53.6805 30.8098C54.6805 31.0198 55.3905 31.6098 55.7905 32.5598C55.8605 32.7198 55.9305 32.8797 56.0005 33.0397V36.0598V36.0397ZM10.9205 53.0695H45.8205C47.0705 48.1595 48.3205 43.2598 49.5905 38.3098H48.8605C43.8005 38.3098 38.7505 38.3098 33.6905 38.3098C33.4905 38.3098 33.2905 38.3195 33.1005 38.2995C32.5205 38.2295 32.1205 37.7596 32.1405 37.1896C32.1605 36.6396 32.5605 36.2099 33.1205 36.1599C33.3005 36.1399 33.4805 36.1599 33.6605 36.1599C39.9705 36.1599 46.2905 36.1599 52.6005 36.1599C52.7605 36.1599 52.9205 36.1599 53.0905 36.1599C53.5605 36.1299 53.8205 35.8799 53.8305 35.4099C53.8405 34.9799 53.8305 34.5496 53.8305 34.1096C53.8305 33.0296 53.7005 32.8996 52.6305 32.8996C36.4605 32.8996 20.2805 32.8996 4.11047 32.8996C3.95047 32.8996 3.79048 32.8996 3.62048 32.8996C3.14048 32.9196 2.89049 33.1796 2.88049 33.6496C2.87049 34.1196 2.88049 34.5895 2.88049 35.0495C2.88049 35.9595 3.07047 36.1496 3.98047 36.1496C10.3305 36.1496 16.6805 36.1496 23.0305 36.1496C23.2105 36.1496 23.3905 36.1496 23.5705 36.1496C24.1305 36.1996 24.5505 36.6296 24.5705 37.1696C24.6005 37.7296 24.1905 38.2097 23.6105 38.2897C23.4105 38.3197 23.2105 38.2995 23.0205 38.2995C17.9605 38.2995 12.9105 38.2995 7.85046 38.2995H7.12048C8.38048 43.2495 9.6405 48.1498 10.8905 53.0598L10.9205 53.0695ZM17.1305 30.6896H39.5905C39.5505 28.8196 39.4905 26.9897 38.9505 25.2097C38.5205 23.7797 37.6205 22.7299 36.3505 21.9699C36.0205 21.7699 35.8405 21.8098 35.5705 22.0598C34.3205 23.2498 33.0405 24.4095 31.7705 25.5695C31.0305 26.2395 30.3105 26.0999 29.8605 25.1999C29.4405 24.3699 29.0305 23.5299 28.6105 22.6999C28.5405 22.5699 28.4605 22.4399 28.3405 22.2399C27.8505 23.2299 27.4005 24.1498 26.9405 25.0598C26.4005 26.1498 25.7105 26.2799 24.8305 25.4699C23.5905 24.3299 22.3405 23.1895 21.1105 22.0295C20.8805 21.8095 20.7105 21.7696 20.4205 21.9396C19.1205 22.6996 18.2105 23.7597 17.7705 25.2097C17.2305 26.9897 17.1705 28.8096 17.1305 30.6896ZM34.6105 11.7097C33.5805 11.4997 32.5505 11.3498 31.5505 11.0798C30.5505 10.8098 29.5805 10.4198 28.5905 10.0998C27.5505 9.7598 26.5205 9.37982 25.4605 9.11982C24.5705 8.89982 23.7605 9.22952 23.0705 9.81952C22.4105 10.3895 21.8805 11.0097 22.0505 11.9797C22.1005 12.2897 22.0705 12.6299 22.0505 12.9499C22.0205 13.8099 22.2805 14.5797 22.7805 15.2697C23.9405 16.8697 25.4705 17.9395 27.3505 18.5295C28.0705 18.7595 28.8005 18.7199 29.5305 18.4899C30.7305 18.1099 31.7705 17.4498 32.7305 16.6398C34.2505 15.3398 35.0005 13.7497 34.6105 11.7097ZM34.6505 9.46991C34.8005 6.89991 33.9605 4.82987 31.8405 3.42987C29.6505 1.98987 27.3405 1.9595 25.0805 3.2995C23.4205 4.2895 22.4505 5.78954 22.1005 7.83954C23.6505 6.76954 25.2105 6.71966 26.8105 7.20966C27.9005 7.54966 28.9805 7.9598 30.0605 8.3498C31.5305 8.8898 33.0205 9.32991 34.6505 9.46991ZM12.1905 19.5197C12.1705 18.8497 11.9305 18.4196 11.4305 18.1896C10.9105 17.9496 10.3905 17.9999 9.98047 18.4099C9.53047 18.8699 9.11048 19.3698 8.74048 19.8898C8.35048 20.4398 8.49049 21.1495 9.00049 21.5895C9.49049 22.0095 10.2505 22.0395 10.7205 21.5695C11.1905 21.0995 11.6005 20.5695 12.0005 20.0495C12.1305 19.8795 12.1605 19.6195 12.1905 19.5095V19.5197ZM45.8405 18.0598C45.3305 18.0898 44.9405 18.2997 44.7005 18.7497C44.4605 19.2097 44.4605 19.6998 44.7705 20.1198C45.1405 20.6098 45.5305 21.0797 45.9505 21.5197C46.3105 21.9097 46.7905 21.9898 47.2905 21.8298C47.8205 21.6598 48.1105 21.2599 48.1905 20.7199C48.3205 19.8399 46.7205 18.0297 45.8405 18.0397V18.0598ZM25.4905 23.1398C25.9205 22.2698 26.3205 21.4596 26.7105 20.6896C25.6905 20.1996 24.7105 19.7197 23.8105 19.2897C23.4105 19.6697 23.0005 20.0597 22.5805 20.4597C23.5205 21.3297 24.4705 22.1998 25.4905 23.1398ZM34.2105 20.3996C33.7705 19.9696 33.3805 19.5799 33.0205 19.2399C32.0105 19.7299 31.0305 20.2099 30.0205 20.6999C30.4005 21.4699 30.8105 22.2798 31.2405 23.1398C32.2405 22.2198 33.2005 21.3296 34.2105 20.3996Z" fill="white"/>
<path d="M28.4191 41.3496C31.7491 41.3496 35.0791 41.3496 38.3991 41.3496C40.1891 41.3496 41.1791 42.3394 41.1891 44.1094C41.1891 45.1894 41.1891 46.2696 41.1891 47.3496C41.1891 49.0296 40.1691 50.0493 38.5091 50.0493C31.7491 50.0493 24.9791 50.0493 18.2191 50.0493C16.5791 50.0493 15.5491 49.0294 15.5391 47.3994C15.5391 46.2694 15.5391 45.1295 15.5391 43.9995C15.5391 42.3695 16.5791 41.3496 18.2191 41.3496C21.6191 41.3496 25.0191 41.3496 28.4191 41.3496ZM28.4191 43.5093C25.0691 43.5093 21.7291 43.5093 18.3791 43.5093C17.8691 43.5093 17.6691 43.6495 17.6791 44.1895C17.7091 45.2295 17.6991 46.2793 17.6791 47.3193C17.6791 47.7693 17.8491 47.9194 18.2891 47.9194C24.9991 47.9194 31.7091 47.9194 38.4191 47.9194C38.8991 47.9194 39.0391 47.7195 39.0291 47.2695C39.0091 46.2595 39.0291 45.2595 39.0291 44.2495C39.0291 43.5595 38.9991 43.5293 38.2891 43.5293C34.9991 43.5293 31.7091 43.5293 28.4191 43.5293V43.5093Z" fill="white"/>
<path d="M28.3697 36.1494C28.9497 36.1494 29.4297 36.6395 29.4397 37.2095C29.4397 37.7995 28.9397 38.3093 28.3497 38.2993C27.7497 38.2993 27.2697 37.7797 27.2897 37.1797C27.3097 36.5997 27.7997 36.1396 28.3797 36.1396L28.3697 36.1494Z" fill="white"/>
</svg>
